<?xml version="1.0" encoding="utf-8"?>
<!-- Generator: Adobe Illustrator 21.1.0, SVG Export Plug-In . SVG Version: 6.00 Build 0)  -->
<svg version="1.1" id="Layer_1" xmlns="http://www.w3.org/2000/svg" xmlns:xlink="http://www.w3.org/1999/xlink" x="0px" y="0px"
	 viewBox="0 0 250 250" enable-background="new 0 0 250 250" xml:space="preserve">
<circle fill="#45B649" cx="126.3" cy="122.8" r="115"/>
<path display="none" fill="#FFFFFF" d="M61.9,136.8c0-5.8,1.6-11.1,4.7-15.9s7.2-8.4,12.3-10.8c-0.1-1.2-0.1-2.2-0.1-2.8
	c0-9.3,3.3-17.2,9.9-23.8s14.5-9.9,23.8-9.9c6.9,0,13.2,1.9,18.8,5.8s9.7,8.9,12.3,15.1c3.1-2.7,6.7-4.1,10.9-4.1
	c4.6,0,8.6,1.6,11.9,4.9c3.3,3.3,4.9,7.3,4.9,11.9c0,3.3-0.9,6.3-2.7,9.1c5.7,1.3,10.3,4.3,14,8.8c3.7,4.6,5.5,9.8,5.5,15.7
	c0,7-2.5,12.9-7.4,17.9s-10.9,7.4-17.9,7.4H91.3c-8.1,0-15-2.9-20.8-8.6C64.8,151.9,61.9,144.9,61.9,136.8z"/>
<path display="none" fill="#29A3D2" d="M104.2,147.1v-12.2c0-0.8,0.4-1.3,1.1-1.6s1.3-0.2,1.9,0.4l3.9,3.9l9.6-9.6l-9.6-9.6
	l-3.9,3.9c-0.3,0.3-0.8,0.5-1.2,0.5c-0.2,0-0.4,0-0.7-0.1c-0.7-0.3-1.1-0.8-1.1-1.6v-12.2c0-0.5,0.2-0.9,0.5-1.2
	c0.3-0.3,0.8-0.5,1.2-0.5h12.2c0.8,0,1.3,0.4,1.6,1.1c0.3,0.7,0.2,1.3-0.4,1.9l-3.9,3.9l9.6,9.6l9.6-9.6l-3.9-3.9
	c-0.6-0.5-0.7-1.2-0.4-1.9c0.3-0.7,0.8-1.1,1.6-1.1h12.2c0.5,0,0.9,0.2,1.2,0.5s0.5,0.8,0.5,1.2v12.2c0,0.8-0.4,1.3-1.1,1.6
	c-0.2,0.1-0.5,0.1-0.7,0.1c-0.5,0-0.9-0.2-1.2-0.5l-3.9-3.9l-9.6,9.6l9.6,9.6l3.9-3.9c0.5-0.6,1.2-0.7,1.9-0.4s1.1,0.8,1.1,1.6v12.2
	c0,0.5-0.2,0.9-0.5,1.2s-0.8,0.5-1.2,0.5h-12.2c-0.8,0-1.3-0.4-1.6-1.1c-0.3-0.7-0.2-1.3,0.4-1.9l3.9-3.9l-9.6-9.6l-9.6,9.6l3.9,3.9
	c0.6,0.5,0.7,1.2,0.4,1.9c-0.3,0.7-0.8,1.1-1.6,1.1h-12.2c-0.5,0-0.9-0.2-1.2-0.5C104.3,148,104.2,147.6,104.2,147.1z"/>
<path display="none" fill="#FFFFFF" d="M84.1,179.5c-5,0-8.3-1.5-10-4.5c-1.6-3-1.1-6.6,1.5-10.8l35.7-56.2V79.6h-4.5
	c-1.2,0-2.3-0.4-3.2-1.3c-0.9-0.9-1.3-2-1.3-3.2s0.4-2.3,1.3-3.2c0.9-0.9,2-1.3,3.2-1.3h36.3c1.2,0,2.3,0.5,3.2,1.3
	c0.9,0.9,1.3,2,1.3,3.2s-0.4,2.3-1.3,3.2c-0.9,0.9-2,1.3-3.2,1.3h-4.5v28.3l35.7,56.2c2.6,4.2,3.2,7.8,1.5,10.8c-1.6,3-5,4.5-10,4.5
	H84.1V179.5z M99.7,143.2h50.5L131,112.7l-1.4-2.2v-2.6V79.6h-9.1v28.3v2.6l-1.4,2.2L99.7,143.2z"/>
<path display="none" fill="#FFFFFF" d="M66.6,149.7c-3.4-7.8-5-16.1-5-24.7s1.7-16.8,5-24.7C70,92.5,74.5,85.7,80.1,80
	c5.7-5.7,12.4-10.2,20.3-13.5c7.8-3.4,16.1-5,24.7-5s16.8,1.7,24.7,5c7.8,3.4,14.6,7.9,20.3,13.5c5.7,5.7,10.2,12.4,13.5,20.3
	c3.4,7.8,5,16.1,5,24.7s-1.7,16.8-5,24.7c-3.4,7.8-7.9,14.6-13.5,20.3s-12.4,10.2-20.3,13.5c-7.8,3.4-16.1,5-24.7,5
	s-16.8-1.7-24.7-5c-7.8-3.4-14.6-7.9-20.3-13.5C74.4,164.2,69.9,157.5,66.6,149.7z M77,99.4c-4.3,8.1-6.4,16.6-6.4,25.6
	s2.1,17.5,6.4,25.6l13.7-13.7c-1.3-3.9-2-7.8-2-11.8s0.7-8,2-11.8L77,99.4L77,99.4z M105.8,105.8c-5.3,5.3-8,11.7-8,19.2
	s2.7,13.9,8,19.2s11.7,8,19.2,8s13.9-2.7,19.2-8s8-11.7,8-19.2s-2.7-13.9-8-19.2s-11.7-8-19.2-8S111.1,100.5,105.8,105.8z M99.4,77
	l13.7,13.7c3.9-1.3,7.8-2,11.8-2c4,0,8,0.7,11.8,2L150.6,77c-8.1-4.3-16.6-6.4-25.6-6.4C116,70.6,107.5,72.7,99.4,77z M99.4,173
	c8.1,4.3,16.6,6.4,25.6,6.4s17.5-2.1,25.6-6.4l-13.7-13.7c-3.9,1.3-7.8,2-11.8,2s-8-0.7-11.8-2L99.4,173z M159.3,136.8l13.7,13.7
	c4.3-8.1,6.4-16.6,6.4-25.6s-2.1-17.5-6.4-25.6L159.3,113c1.3,3.9,2,7.8,2,11.8C161.3,129,160.6,133,159.3,136.8z"/>
<path display="none" fill="#FFFFFF" d="M63.6,151c0-1.2,0.4-2.2,1.3-3c0.9-0.9,1.9-1.3,3-1.3V125c0-0.4,0-1.1,0-2.4
	c0-1.2,0-2.1,0-2.6s0.1-1.3,0.2-2.3c0.1-1.1,0.2-1.9,0.4-2.5c0.2-0.6,0.5-1.3,0.9-2.1c0.4-0.8,0.9-1.4,1.5-2l13.4-13.4
	c0.9-0.9,2-1.6,3.4-2.2s2.7-0.9,4-0.9h10.8v-13c0-1.2,0.4-2.2,1.3-3c0.9-0.9,1.9-1.3,3-1.3H176c1.2,0,2.2,0.4,3,1.3
	c0.9,0.9,1.3,1.9,1.3,3V151c0,0.7-0.1,1.3-0.3,1.8s-0.5,0.9-0.9,1.3c-0.4,0.3-0.8,0.6-1.1,0.8s-0.8,0.3-1.6,0.4
	c-0.7,0.1-1.3,0.1-1.5,0.1c-0.3,0-0.8,0-1.7,0s-1.4,0-1.5,0c0,4.8-1.7,8.9-5.1,12.2c-3.4,3.4-7.5,5.1-12.2,5.1
	c-4.8,0-8.9-1.7-12.2-5.1s-5.1-7.5-5.1-12.2h-26c0,4.8-1.7,8.9-5.1,12.2c-3.4,3.4-7.5,5.1-12.2,5.1c-4.8,0-8.9-1.7-12.2-5.1
	c-3.4-3.4-5.1-7.5-5.1-12.2h-4.3c-0.1,0-0.6,0-1.5,0s-1.5,0-1.7,0c-0.3,0-0.8-0.1-1.5-0.1c-0.7-0.1-1.3-0.2-1.6-0.4
	c-0.3-0.2-0.7-0.5-1.1-0.8s-0.7-0.7-0.9-1.3C63.7,152.2,63.6,151.6,63.6,151z M76.6,120.7h26v-17.3H91.8c-0.6,0-1.1,0.2-1.5,0.6
	l-13.2,13.2c-0.4,0.4-0.6,0.9-0.6,1.5L76.6,120.7L76.6,120.7z M87.8,149.2c-1.7,1.7-2.6,3.7-2.6,6.1c0,2.3,0.9,4.4,2.6,6.1
	c1.7,1.7,3.7,2.6,6.1,2.6c2.3,0,4.4-0.9,6.1-2.6c1.7-1.7,2.6-3.7,2.6-6.1c0-2.3-0.9-4.4-2.6-6.1c-1.7-1.7-3.7-2.6-6.1-2.6
	C91.5,146.6,89.5,147.5,87.8,149.2z M148.4,149.2c-1.7,1.7-2.6,3.7-2.6,6.1c0,2.3,0.9,4.4,2.6,6.1c1.7,1.7,3.7,2.6,6.1,2.6
	c2.3,0,4.4-0.9,6.1-2.6c1.7-1.7,2.6-3.7,2.6-6.1c0-2.3-0.9-4.4-2.6-6.1c-1.7-1.7-3.7-2.6-6.1-2.6
	C152.1,146.6,150.1,147.5,148.4,149.2z"/>
<path display="none" fill="#FFFFFF" d="M73.9,167.6v-29.8c0-1.2,0.4-2.2,1.3-3c0.8-0.8,1.8-1.3,3-1.3H108c1.2,0,2.2,0.4,3,1.3
	c0.8,0.8,1.3,1.8,1.3,3s-0.4,2.2-1.3,3l-9.1,9.1c3.1,2.9,6.7,5.2,10.7,6.8s8.1,2.4,12.4,2.4c5.9,0,11.5-1.4,16.6-4.3
	c5.1-2.9,9.3-6.9,12.4-11.9c0.5-0.8,1.7-3.3,3.5-7.8c0.4-1,1-1.5,2-1.5h12.8c0.6,0,1.1,0.2,1.5,0.6c0.4,0.4,0.6,0.9,0.6,1.5
	c0,0.2,0,0.4-0.1,0.5c-2.8,11.9-8.8,21.5-17.8,28.9c-9.1,7.4-19.7,11.1-31.8,11.1c-6.5,0-12.7-1.2-18.8-3.7
	c-6.1-2.4-11.5-5.9-16.2-10.4l-8.6,8.6c-0.8,0.8-1.8,1.3-3,1.3s-2.2-0.4-3-1.3C74.3,169.7,73.9,168.7,73.9,167.6z M75.1,114.4v-0.5
	C78,102,84,92.4,93.1,85s19.7-11.1,31.9-11.1c6.5,0,12.8,1.2,18.9,3.7c6.1,2.5,11.6,5.9,16.3,10.4l8.7-8.6c0.8-0.8,1.8-1.3,3-1.3
	s2.2,0.4,3,1.3c0.8,0.8,1.3,1.8,1.3,3v29.8c0,1.2-0.4,2.2-1.3,3c-0.8,0.8-1.8,1.3-3,1.3H142c-1.2,0-2.2-0.4-3-1.3
	c-0.8-0.8-1.3-1.8-1.3-3s0.4-2.2,1.3-3l9.2-9.2c-6.6-6.1-14.3-9.1-23.2-9.1c-5.9,0-11.5,1.4-16.6,4.3s-9.3,6.9-12.4,11.9
	c-0.5,0.8-1.7,3.4-3.5,7.8c-0.4,1-1,1.5-2,1.5H77.2c-0.6,0-1.1-0.2-1.5-0.6C75.3,115.4,75.1,114.9,75.1,114.4z"/>
<path display="none" fill="#FFFFFF" d="M79.7,139.5V85.1c0-1.2,0.4-2.3,1.3-3.2c0.9-0.9,2-1.3,3.2-1.3h81.6c1.2,0,2.3,0.5,3.2,1.3
	c0.9,0.9,1.3,2,1.3,3.2v54.4c0,4.1-0.8,8.1-2.4,12.1c-1.6,4-3.5,7.5-5.9,10.6c-2.3,3.1-5.1,6.1-8.4,9c-3.2,2.9-6.2,5.4-9,7.3
	c-2.7,1.9-5.6,3.8-8.6,5.5s-5.1,2.9-6.3,3.5c-1.3,0.6-2.3,1.1-3,1.4c-0.6,0.3-1.2,0.4-1.8,0.4c-0.7,0-1.3-0.1-1.8-0.4
	c-0.8-0.3-1.8-0.8-3-1.4c-1.3-0.6-3.4-1.8-6.3-3.5c-3-1.7-5.8-3.6-8.6-5.5c-2.7-1.9-5.7-4.4-9-7.3c-3.2-2.9-6-5.9-8.4-9
	c-2.3-3.1-4.3-6.6-5.9-10.6C80.5,147.6,79.7,143.6,79.7,139.5z M125,174.7c5.6-3,10.6-6.2,15.1-9.7c11.1-8.7,16.6-17.2,16.6-25.5
	V94.2H125V174.7z"/>
<path display="none" fill="#FFFFFF" d="M58.9,157.7v-75c0-3,1.1-5.6,3.2-7.8c2.2-2.2,4.8-3.2,7.8-3.2h110.2c3,0,5.6,1.1,7.8,3.2
	c2.2,2.2,3.2,4.8,3.2,7.8v75c0,3-1.1,5.6-3.2,7.8c-2.2,2.2-4.8,3.2-7.8,3.2h-37.5c0,1.7,0.4,3.5,1.1,5.3c0.7,1.9,1.5,3.5,2.2,4.9
	s1.1,2.4,1.1,3c0,1.2-0.4,2.2-1.3,3.1c-0.9,0.9-1.9,1.3-3.1,1.3h-35.3c-1.2,0-2.2-0.4-3.1-1.3c-0.9-0.9-1.3-1.9-1.3-3.1
	c0-0.6,0.4-1.7,1.1-3c0.7-1.4,1.5-3,2.2-4.8s1.1-3.6,1.1-5.4H69.9c-3,0-5.6-1.1-7.8-3.2C59.9,163.3,58.9,160.7,58.9,157.7z
	 M67.7,140c0,0.6,0.2,1.1,0.7,1.6c0.4,0.4,1,0.7,1.6,0.7h110.2c0.6,0,1.1-0.2,1.6-0.7c0.4-0.4,0.7-1,0.7-1.6V82.7
	c0-0.6-0.2-1.1-0.7-1.6c-0.4-0.4-1-0.7-1.6-0.7H69.9c-0.6,0-1.1,0.2-1.6,0.7c-0.4,0.4-0.7,1-0.7,1.6L67.7,140L67.7,140z"/>
<path display="none" fill="#FFFFFF" d="M61.2,131v-12.3c0-0.4,0.2-0.9,0.5-1.3s0.7-0.7,1.1-0.7l10.3-1.6c0.5-1.5,1.2-3.2,2.1-5
	c-1.5-2.1-3.5-4.7-6-7.6c-0.3-0.5-0.5-0.9-0.5-1.3c0-0.5,0.2-1,0.5-1.3c1-1.3,2.8-3.3,5.4-5.9c2.7-2.6,4.4-3.9,5.2-3.9
	c0.5,0,1,0.2,1.4,0.5l7.6,6c1.5-0.8,3.2-1.5,5.1-2.1c0.5-4.8,1-8.2,1.5-10.2c0.3-1.1,1-1.6,2-1.6h12.4c0.5,0,0.9,0.2,1.3,0.5
	s0.6,0.7,0.7,1.2l1.5,10.2c1.5,0.4,3.2,1.1,5,2.1l7.8-5.9c0.4-0.3,0.8-0.5,1.3-0.5s1,0.2,1.4,0.5c6.4,5.9,9.6,9.4,9.6,10.6
	c0,0.4-0.2,0.8-0.5,1.3c-0.5,0.7-1.5,1.9-2.8,3.6s-2.3,3-3,4c1,2.1,1.8,3.9,2.3,5.4l10.1,1.5c0.4,0.1,0.8,0.3,1.1,0.7
	c0.3,0.4,0.5,0.8,0.5,1.3v12.3c0,0.4-0.2,0.9-0.5,1.3c-0.3,0.4-0.7,0.7-1.1,0.7l-10.3,1.6c-0.5,1.6-1.2,3.2-2.1,5
	c1.5,2.1,3.5,4.7,6,7.6c0.3,0.4,0.5,0.9,0.5,1.3c0,0.5-0.2,1-0.5,1.3c-1,1.3-2.8,3.3-5.5,5.9c-2.6,2.6-4.4,4-5.2,4
	c-0.5,0-1-0.2-1.4-0.5l-7.6-6c-1.6,0.8-3.3,1.5-5.1,2.1c-0.5,4.8-1,8.2-1.5,10.3c-0.3,1.1-1,1.6-2,1.6H97.6c-0.5,0-0.9-0.2-1.3-0.5
	s-0.6-0.7-0.7-1.2l-1.5-10.2c-1.5-0.4-3.2-1.1-5-2.1l-7.8,5.9c-0.3,0.3-0.8,0.5-1.3,0.5s-1-0.2-1.4-0.5c-6.4-5.9-9.6-9.4-9.6-10.6
	c0-0.4,0.2-0.8,0.5-1.3c0.4-0.6,1.3-1.8,2.7-3.5c1.4-1.7,2.4-3.1,3.1-4.1c-1-1.9-1.8-3.8-2.3-5.4l-10.1-1.6c-0.4,0-0.8-0.3-1.1-0.6
	C61.4,131.9,61.2,131.5,61.2,131z M91.7,112.9c-3.3,3.3-5,7.3-5,12c0,4.7,1.7,8.7,5,12s7.3,5,12,5s8.7-1.7,12-5s5-7.3,5-12
	s-1.7-8.7-5-12s-7.3-5-12-5C99.1,108,95.1,109.6,91.7,112.9z M147.6,97.7c-6.6-0.7-9.9-1.3-9.9-2.1v-9.3c0-0.7,3.3-1.4,9.9-2.1
	c0.6-1.3,1.2-2.4,2-3.5c-2.3-5-3.4-8.1-3.4-9.2c0-0.2,0.1-0.3,0.3-0.5c0.2-0.1,1-0.5,2.3-1.3c1.4-0.8,2.7-1.5,3.9-2.3
	c1.2-0.7,1.9-1.1,2-1.1c0.4,0,1.4,1,3.1,3.1c1.7,2.1,2.8,3.6,3.5,4.5c0.9-0.1,1.5-0.1,2-0.1c0.4,0,1.1,0,2,0.1
	c2.3-3.1,4.3-5.6,6.1-7.4l0.4-0.1c0.2,0,2.9,1.6,8.2,4.6c0.2,0.1,0.3,0.3,0.3,0.5c0,1.1-1.1,4.2-3.4,9.2c0.8,1,1.4,2.2,2,3.5
	c6.6,0.7,9.9,1.4,9.9,2.1v9.3c0,0.7-3.3,1.4-9.9,2.1c-0.5,1.2-1.2,2.3-2,3.5c2.3,5,3.4,8.1,3.4,9.2c0,0.2-0.1,0.3-0.3,0.5
	c-5.4,3.1-8.1,4.7-8.2,4.7c-0.4,0-1.4-1-3.1-3.1c-1.7-2.1-2.8-3.6-3.5-4.5c-0.9,0.1-1.6,0.1-2,0.1s-1.1,0-2-0.1
	c-0.6,0.9-1.8,2.4-3.5,4.5s-2.7,3.1-3.1,3.1c-0.1,0-2.8-1.6-8.2-4.7c-0.2-0.1-0.3-0.3-0.3-0.5c0-1.1,1.1-4.2,3.4-9.2
	C148.8,100,148.2,98.9,147.6,97.7L147.6,97.7z M147.6,165.7c-6.6-0.7-9.9-1.3-9.9-2.1v-9.3c0-0.7,3.3-1.4,9.9-2.1
	c0.6-1.3,1.2-2.4,2-3.5c-2.3-5-3.4-8.1-3.4-9.2c0-0.2,0.1-0.3,0.3-0.5c0.2-0.1,1-0.5,2.3-1.3c1.4-0.8,2.7-1.5,3.9-2.3
	c1.2-0.7,1.9-1.1,2-1.1c0.4,0,1.4,1,3.1,3.1c1.7,2.1,2.8,3.6,3.5,4.5c0.9-0.1,1.5-0.1,2-0.1c0.4,0,1.1,0,2,0.1
	c2.3-3.1,4.3-5.6,6.1-7.4l0.4-0.1c0.2,0,2.9,1.6,8.2,4.6c0.2,0.1,0.3,0.3,0.3,0.5c0,1.1-1.1,4.2-3.4,9.2c0.8,1,1.4,2.2,2,3.5
	c6.6,0.7,9.9,1.4,9.9,2.1v9.3c0,0.7-3.3,1.4-9.9,2.1c-0.5,1.2-1.2,2.3-2,3.5c2.3,5,3.4,8.1,3.4,9.2c0,0.2-0.1,0.3-0.3,0.5
	c-5.4,3.1-8.1,4.7-8.2,4.7c-0.4,0-1.4-1-3.1-3.1c-1.7-2.1-2.8-3.6-3.5-4.5c-0.9,0.1-1.6,0.1-2,0.1s-1.1,0-2-0.1
	c-0.6,0.9-1.8,2.4-3.5,4.5s-2.7,3.1-3.1,3.1c-0.1,0-2.8-1.6-8.2-4.7c-0.2-0.1-0.3-0.3-0.3-0.5c0-1.1,1.1-4.2,3.4-9.2
	C148.8,168,148.2,166.9,147.6,165.7L147.6,165.7z M154.8,91c0,2.3,0.8,4.3,2.5,6s3.7,2.5,6,2.5s4.3-0.8,6-2.5s2.5-3.7,2.5-6
	s-0.8-4.3-2.5-6s-3.7-2.5-6-2.5s-4.3,0.8-6,2.5S154.8,88.7,154.8,91z M154.8,159c0,2.3,0.8,4.3,2.5,6s3.7,2.5,6,2.5s4.3-0.8,6-2.5
	s2.5-3.7,2.5-6s-0.8-4.3-2.5-6s-3.7-2.5-6-2.5s-4.3,0.8-6,2.5S154.8,156.7,154.8,159z"/>
<path display="none" fill="#FFFFFF" d="M74,122.7V88l41.8-5.8v40.4L74,122.7L74,122.7z M74,162v-34.1h41.8v39.9L74,162z
	 M120.4,122.7v-41L176,74v48.7H120.4z M120.4,168.3v-40.5H176V176L120.4,168.3z"/>
<path display="none" fill="#FFFFFF" d="M62.3,126.6c-0.5-0.5-0.7-1-0.7-1.6s0.2-1.1,0.7-1.6l32.3-32.3c0.5-0.5,1-0.7,1.6-0.7
	s1.1,0.2,1.6,0.7l3.5,3.5c0.5,0.5,0.7,1,0.7,1.6s-0.2,1.1-0.7,1.6L74,125l27.2,27.2c0.5,0.5,0.7,1,0.7,1.6s-0.2,1.1-0.7,1.6
	l-3.5,3.5c-0.5,0.5-1,0.7-1.6,0.7s-1.1-0.2-1.6-0.7L62.3,126.6L62.3,126.6z M107.8,168.5L133.7,79c0.2-0.6,0.5-1.1,1.1-1.4
	c0.5-0.3,1.1-0.4,1.6-0.2l4.3,1.2c0.6,0.2,1.1,0.5,1.4,1.1c0.3,0.5,0.4,1.1,0.2,1.7l-26,89.6c-0.2,0.6-0.5,1.1-1.1,1.4
	c-0.5,0.3-1.1,0.4-1.6,0.2l-4.3-1.2c-0.6-0.2-1.1-0.5-1.4-1.1C107.7,169.7,107.6,169.1,107.8,168.5z M148.8,155.4
	c-0.5-0.5-0.7-1-0.7-1.6s0.2-1.1,0.7-1.6L176,125l-27.2-27.2c-0.5-0.5-0.7-1-0.7-1.6s0.2-1.1,0.7-1.6l3.5-3.5c0.5-0.5,1-0.7,1.6-0.7
	s1.1,0.2,1.6,0.7l32.3,32.3c0.5,0.5,0.7,1,0.7,1.6s-0.2,1.1-0.7,1.6l-32.3,32.3c-0.5,0.5-1,0.7-1.6,0.7s-1.1-0.2-1.6-0.7
	L148.8,155.4L148.8,155.4z"/>
<path display="none" fill="#FFFFFF" d="M74.9,153.6v-53.2c0-5.1,1.8-9.4,5.4-13s7.9-5.4,13-5.4h53.2c2.7,0,5.2,0.5,7.5,1.6
	c0.6,0.3,1,0.8,1.2,1.5c0.1,0.7-0.1,1.3-0.6,1.9l-3.1,3.1c-0.6,0.6-1.3,0.8-2,0.5c-1-0.3-1.9-0.4-2.9-0.4H93.3c-2.8,0-5.2,1-7.2,3
	s-3,4.4-3,7.2v53.2c0,2.8,1,5.2,3,7.2s4.4,3,7.2,3h53.2c2.8,0,5.2-1,7.2-3s3-4.4,3-7.2v-8.1c0-0.6,0.2-1,0.6-1.4l4.1-4.1
	c0.6-0.6,1.4-0.8,2.2-0.4c0.9,0.3,1.3,1,1.3,1.9v12.2c0,5.1-1.8,9.4-5.4,13c-3.6,3.6-7.9,5.4-13,5.4H93.3c-5.1,0-9.4-1.8-13-5.4
	C76.7,163,74.9,158.7,74.9,153.6z M115.9,155.7v-18.4l43-43l18.4,18.4l-43,43L115.9,155.7L115.9,155.7z M122,143.4h6.1v6.1h3.6
	l7.4-7.4l-9.7-9.7l-7.4,7.4C122,139.8,122,143.4,122,143.4z M135.4,125.9c-0.7,0.7-0.7,1.4-0.1,2.1c0.7,0.7,1.4,0.7,2.1-0.1
	l22.4-22.4c0.7-0.7,0.7-1.4,0.1-2.1c-0.7-0.7-1.4-0.7-2.1,0.1L135.4,125.9L135.4,125.9z M163,90.1l5.9-5.9c1.2-1.2,2.6-1.8,4.4-1.8
	c1.7,0,3.2,0.6,4.4,1.8l9.7,9.7c1.2,1.2,1.8,2.6,1.8,4.4c0,1.7-0.6,3.2-1.8,4.4l-5.9,5.9L163,90.1z"/>
<g>
	<g>
		<path fill="#FFFFFF" d="M131.9,154.7c17.3,0,31.3-14,31.3-31.3s-14-31.3-31.3-31.3c-17.3,0-31.3,14.1-31.3,31.3
			C100.6,140.7,114.6,154.7,131.9,154.7z"/>
		<path fill="#FFFFFF" d="M131.9,163.1c21.9,0,39.7-17.8,39.7-39.7c0-21.9-17.8-39.7-39.7-39.7c-21.9,0-39.7,17.8-39.7,39.7
			C92.2,145.3,110,163.1,131.9,163.1z M131.9,89.8c18.5,0,33.6,15.1,33.6,33.6c0,18.5-15.1,33.6-33.6,33.6s-33.6-15.1-33.6-33.6
			C98.3,104.8,113.4,89.8,131.9,89.8z"/>
		<path fill="#FFFFFF" d="M193.7,166.8l-2.3-89.2c0-1.9-1.6-3.5-3.5-3.5c-0.5,0-1,0.1-1.4,0.3v0c0,0-0.1,0.1-0.2,0.1
			c-0.3,0.2-0.6,0.4-0.9,0.7c-2.5,2.1-10.7,10.6-11.3,22.1c-1,17.5,7.5,24.7,10.4,31.2l-2.3,38.2c0,1.9,3.9,3.5,5.8,3.5
			C189.8,170.3,193.7,168.7,193.7,166.8z"/>
		<path fill="#FFFFFF" d="M65,112.5l6,3c0.7,0.3,1.4,0.6,2.2,0.8l-2.3,52.1c0,1.6,3.9,2.9,5.8,2.9c1.9,0,5.8-1.3,5.8-2.9L80.1,116
			c0.8-0.3,1.6-0.6,2.3-1l4.4-2.7c3.2-2,5.6-6.3,5.6-10V78.9c0-1.9-1.6-3.5-3.5-3.5c-1.9,0-3.5,1.6-3.5,3.5v21h-1.9v-21
			c0-1.9-1.6-3.5-3.5-3.5c-1.9,0-3.5,1.6-3.5,3.5v21h-1.9v-21c0-1.9-1.6-3.5-3.5-3.5c-1.9,0-3.5,1.6-3.5,3.5v21h-1.9V79.7
			c0-1.9-1.6-3.5-3.5-3.5c-1.9,0-3.5,1.6-3.5,3.5v23C58.9,106.5,61.5,110.8,65,112.5z"/>
	</g>
</g>
</svg>
